<?xml version="1.0" encoding="utf-8"?>
<!-- Generator: Adobe Illustrator 21.1.0, SVG Export Plug-In . SVG Version: 6.00 Build 0)  -->
<svg version="1.1" id="Layer_1" xmlns="http://www.w3.org/2000/svg" xmlns:xlink="http://www.w3.org/1999/xlink" x="0px" y="0px"
	 viewBox="0 0 410.7 62" style="enable-background:new 0 0 410.7 62;" xml:space="preserve">
<style type="text/css">
	.st0{fill:#FFFFFF;}
</style>
<g>
	<g>
		<path id="W_2_" class="st0" d="M39.4,53.6c0,4.7-3.8,8.4-8.4,8.4c-3.3,0-6.2-1.9-7.5-4.7l0,0L0.9,12.2l0,0C0.3,11.1,0,9.8,0,8.4
			C0,3.8,3.8,0,8.4,0c3.3,0,6.2,1.9,7.5,4.7l0,0l22.6,45.1l0,0C39.1,50.9,39.4,52.2,39.4,53.6z M68.6,49.8L68.6,49.8L46.1,4.7l0,0
			C44.7,1.9,41.8,0,38.5,0c-4.7,0-8.4,3.8-8.4,8.4c0,1.4,0.3,2.6,0.9,3.8l0,0l22.6,45.1l0,0c1.4,2.8,4.2,4.7,7.5,4.7
			c4.7,0,8.4-3.8,8.4-8.4C69.5,52.2,69.2,50.9,68.6,49.8z M91.9,6.9c-0.6-3.5-3.5-6.3-7-6.8c-3.8-0.5-7.2,1.5-8.8,4.6l0,0l-9.4,18.8
			L73.4,37c1.1,2.2,4.3,2.2,5.4,0l12.4-24.8l0,0C91.9,10.6,92.3,8.8,91.9,6.9z"/>
		<g>
			<path class="st0" d="M168.5,19.1h-6.4c-0.7,0-1.4,0.4-1.7,1.1L153.4,38l-8.3-18c-0.3-0.6-0.9-1-1.6-1h-1.7c-0.7,0-1.4,0.4-1.6,1
				l-8,17.8l-6.4-17.7c-0.2-0.7-0.9-1.1-1.7-1.1h-7c-0.6,0-1.1,0.2-1.4,0.7c-0.3,0.4-0.4,1-0.2,1.4l13.2,33.9
				c0.2,0.6,0.9,1.1,1.7,1.1h1.7c0.7,0,1.3-0.4,1.6-1l9.1-19.2l9.2,19.2c0.3,0.6,0.9,1,1.6,1h1.7c0.7,0,1.4-0.4,1.7-1.1l13.2-33.9
				c0.2-0.5,0.1-1-0.2-1.4C169.6,19.3,169.1,19.1,168.5,19.1z"/>
			<path class="st0" d="M278.2,48.2c-0.1-0.5-0.4-0.9-0.9-1.1c-0.5-0.2-1.1-0.2-1.6,0c-0.5,0.2-0.9,0.4-1.4,0.5
				c-1.1,0.3-2.1,0.5-3.1,0.5c-1.8,0-3-0.4-3.7-1.2c-0.5-0.6-1.2-2-1.2-5V27h8.3c1,0,1.8-0.7,1.8-1.6v-4.7c0-0.9-0.8-1.6-1.8-1.6
				h-8.3v-12c0-0.5-0.3-1-0.8-1.3c-0.5-0.3-1.1-0.4-1.6-0.2L257.5,8c-0.7,0.2-1.1,0.8-1.1,1.5v9.7h-2.5c-1,0-1.8,0.7-1.8,1.6v4.7
				c0,0.9,0.8,1.6,1.8,1.6h2.5v17.3c0,3.4,1.2,6.2,3.5,8.5c2.3,2.3,5.3,3.4,8.7,3.4c3.4,0,6.5-0.3,9.3-1c0.9-0.2,1.5-1,1.3-1.8
				L278.2,48.2z"/>
			<path class="st0" d="M299.5,18.6c-5.5,0-10,1.8-13.4,5.3c-3.3,3.4-5,8-5,13.5c0,5.7,1.6,10.3,4.8,13.7c3.3,3.5,7.9,5.2,13.6,5.2
				c5.6,0,10.2-1.7,13.5-5.2c3.3-3.4,4.9-8,4.9-13.7c0-5.7-1.6-10.3-4.8-13.7C309.8,20.3,305.2,18.6,299.5,18.6z M305.2,45.5
				c-1.4,1.8-3.3,2.7-5.7,2.7c-3.4,0-8-1.1-8-10.9c0-3.5,0.8-6.2,2.3-8.1c1.4-1.8,3.3-2.6,5.7-2.6c3.4,0,8,1.1,8,10.8
				C307.5,40.8,306.7,43.6,305.2,45.5z"/>
			<path class="st0" d="M371.9,19.1h-6.4c-0.7,0-1.4,0.4-1.7,1.1L356.9,38l-8.3-18c-0.3-0.6-0.9-1-1.6-1h-1.7c-0.7,0-1.4,0.4-1.6,1
				l-8,17.8l-6.4-17.7c-0.2-0.7-0.9-1.1-1.7-1.1h-7c-0.6,0-1.1,0.2-1.4,0.7c-0.3,0.4-0.4,1-0.2,1.4l13.2,33.9
				c0.2,0.6,0.9,1.1,1.7,1.1h1.7c0.7,0,1.3-0.4,1.6-1l9.1-19.2l9.2,19.2c0.3,0.6,0.9,1,1.6,1h1.7c0.7,0,1.4-0.4,1.7-1.1l13.2-33.9
				c0.2-0.5,0.1-1-0.2-1.4C373,19.3,372.5,19.1,371.9,19.1z"/>
			<path class="st0" d="M396.9,18.6c-4.3,0-7.7,1.1-10.1,3.4l-0.9-1.8c-0.3-0.6-0.9-1-1.6-1h-4.5c-1,0-1.8,0.7-1.8,1.6V54
				c0,0.9,0.8,1.6,1.8,1.6h6.5c1,0,1.8-0.7,1.8-1.6V29.8c0.7-0.8,1.6-1.5,2.8-2.1c1.4-0.7,2.6-1,3.8-1c2.2,0,3.7,0.5,4.5,1.5
				c0.6,0.8,1.4,2.5,1.4,6.5V54c0,0.9,0.8,1.6,1.8,1.6h6.5c1,0,1.8-0.7,1.8-1.6V33.4C410.7,21.1,403.2,18.6,396.9,18.6z"/>
			<path class="st0" d="M244.3,23.8c-3.5-3.5-8-5.2-13.6-5.2c-1.9,0-3.8,0.4-5.7,1.1c-0.4,0.1-0.7,0.3-1,0.4V7.2
				c0-0.9-0.8-1.6-1.8-1.6h-6.5c-1,0-1.8,0.7-1.8,1.6v34.1l0,0.1c0,6.3,4.4,11.7,10.5,13.8c0,0,0,0,0.1,0c0,0,0.1,0,0.1,0
				c0.4,0.1,0.7,0.2,1.1,0.3c0.4,0.1,0.7,0.2,1.1,0.2c0.1,0,0.2,0,0.2,0.1c1.1,0.2,2.2,0.3,3.2,0.3c5.9,0,10.6-1.8,14.1-5.3
				c3.4-3.5,5.2-8.2,5.2-14.1C249.5,31.6,247.7,27.2,244.3,23.8z M237.2,45.6c-1.4,1.8-3.3,2.7-5.7,2.7c-3.4,0-7.5-1.3-7.5-11.1
				c0-3.5,0.3-6.1,1.8-8c1.4-1.8,3.3-2.6,5.7-2.6c3.4,0,8,1.1,8,10.8C239.5,40.9,238.7,43.7,237.2,45.6z"/>
		</g>
	</g>
	<path class="st0" d="M203.5,23c-3.3-3-7.9-4.5-13.6-4.5c-5,0-9.3,1.6-13,4.9c-4,3.6-6.1,8.4-6.1,14.3c0,5.7,2,10.3,5.9,13.7
		c3.6,3.1,7.9,4.7,13,4.7c3.4,0,6.5-0.5,9.3-1.4c2-0.6,3.6-1.4,4.7-2.3c0,0,0,0,0,0c0.2-0.1,0.4-0.3,0.5-0.5c0,0,0,0,0,0
		c0.8-0.8,1.3-1.8,1.3-3c0-2.3-1.9-4.2-4.2-4.2c-0.9,0-1.7,0.3-2.4,0.7l0,0c-2.2,1.7-4.8,2.5-8.1,2.5c-2.8,0-5.1-0.7-6.8-2.3
		c-1.7-1.5-2.7-3.6-2.9-6.2h24.7c0.8,0,1.5-0.5,1.7-1.2c0.4-1.2,0.6-2.6,0.6-4C208.4,29.7,206.7,25.9,203.5,23z M181.9,32.1
		c0.4-1.3,1.2-2.3,2.3-3.3c1.6-1.4,3.6-2.1,6.1-2.1c2.6,0,4.6,0.7,6.1,2.1c1,0.9,1.6,2,1.8,3.3H181.9z"/>
</g>
</svg>
